<svg xmlns="http://www.w3.org/2000/svg" width="1200" height="760" viewBox="0 0 1200 760">
<defs><linearGradient id="g" x1="0" y1="0" x2="1" y2="1"><stop offset="0.00" stop-color="#84a59d"/><stop offset="0.33" stop-color="#f6bd60"/><stop offset="0.67" stop-color="#f7ede2"/><stop offset="1.00" stop-color="#f28482"/></linearGradient><filter id="blur"><feGaussianBlur stdDeviation="30"/></filter></defs>
<rect width="1200" height="760" fill="#07101d"/>
<rect width="1200" height="760" fill="url(#g)" opacity="0.9"/>
<circle cx="180" cy="160" r="140" fill="#f6bd60" opacity=".45" filter="url(#blur)"/>
<circle cx="960" cy="140" r="170" fill="#f7ede2" opacity=".4" filter="url(#blur)"/>
<circle cx="640" cy="560" r="230" fill="#f28482" opacity=".28" filter="url(#blur)"/>
<g opacity="0.92"><rect x="170" y="190" rx="20" ry="20" width="88" height="88" fill="#84a59d" opacity=".88"/><rect x="290" y="190" rx="20" ry="20" width="88" height="88" fill="#f6bd60" opacity=".88"/><rect x="410" y="190" rx="20" ry="20" width="88" height="88" fill="#f7ede2" opacity=".88"/><rect x="530" y="190" rx="20" ry="20" width="88" height="88" fill="#f28482" opacity=".88"/><rect x="170" y="310" rx="20" ry="20" width="88" height="88" fill="#84a59d" opacity=".88"/><rect x="290" y="310" rx="20" ry="20" width="88" height="88" fill="#f6bd60" opacity=".88"/><rect x="410" y="310" rx="20" ry="20" width="88" height="88" fill="#f7ede2" opacity=".88"/><rect x="530" y="310" rx="20" ry="20" width="88" height="88" fill="#f28482" opacity=".88"/></g>
<text x="72" y="620" fill="white" font-size="68" font-family="Arial, Helvetica, sans-serif" font-weight="700">🦖 Dino Roar Rhythm</text>
<text x="74" y="680" fill="#eef6ff" opacity=".86" font-size="30" font-family="Arial, Helvetica, sans-serif">3D music experiment</text>
</svg>