<svg xmlns="http://www.w3.org/2000/svg" width="1200" height="760" viewBox="0 0 1200 760">
<defs><linearGradient id="g" x1="0" y1="0" x2="1" y2="1"><stop offset="0.00" stop-color="#bde0fe"/><stop offset="0.33" stop-color="#a2d2ff"/><stop offset="0.67" stop-color="#cdb4db"/><stop offset="1.00" stop-color="#ffc8dd"/></linearGradient><filter id="blur"><feGaussianBlur stdDeviation="30"/></filter></defs>
<rect width="1200" height="760" fill="#07101d"/>
<rect width="1200" height="760" fill="url(#g)" opacity="0.9"/>
<circle cx="180" cy="160" r="140" fill="#a2d2ff" opacity=".45" filter="url(#blur)"/>
<circle cx="960" cy="140" r="170" fill="#cdb4db" opacity=".4" filter="url(#blur)"/>
<circle cx="640" cy="560" r="230" fill="#ffc8dd" opacity=".28" filter="url(#blur)"/>
<g opacity="0.92"><rect x="130" y="240" rx="22" ry="22" width="70" height="220" fill="#bde0fe" opacity="0.8"/><rect x="250" y="280" rx="22" ry="22" width="70" height="220" fill="#a2d2ff" opacity="0.8"/><rect x="370" y="240" rx="22" ry="22" width="70" height="220" fill="#cdb4db" opacity="0.8"/><rect x="490" y="280" rx="22" ry="22" width="70" height="220" fill="#ffc8dd" opacity="0.8"/><rect x="610" y="240" rx="22" ry="22" width="70" height="220" fill="#bde0fe" opacity="0.8"/><rect x="730" y="280" rx="22" ry="22" width="70" height="220" fill="#a2d2ff" opacity="0.8"/><rect x="850" y="240" rx="22" ry="22" width="70" height="220" fill="#cdb4db" opacity="0.8"/></g>
<text x="72" y="620" fill="white" font-size="68" font-family="Arial, Helvetica, sans-serif" font-weight="700">☁️ Cloud Chord Castle</text>
<text x="74" y="680" fill="#eef6ff" opacity=".86" font-size="30" font-family="Arial, Helvetica, sans-serif">3D music experiment</text>
</svg>