<svg xmlns="http://www.w3.org/2000/svg" width="1200" height="760" viewBox="0 0 1200 760">
<defs><linearGradient id="g" x1="0" y1="0" x2="1" y2="1"><stop offset="0.00" stop-color="#ffadad"/><stop offset="0.33" stop-color="#ffd6a5"/><stop offset="0.67" stop-color="#fdffb6"/><stop offset="1.00" stop-color="#caffbf"/></linearGradient><filter id="blur"><feGaussianBlur stdDeviation="30"/></filter></defs>
<rect width="1200" height="760" fill="#07101d"/>
<rect width="1200" height="760" fill="url(#g)" opacity="0.9"/>
<circle cx="180" cy="160" r="140" fill="#ffd6a5" opacity=".45" filter="url(#blur)"/>
<circle cx="960" cy="140" r="170" fill="#fdffb6" opacity=".4" filter="url(#blur)"/>
<circle cx="640" cy="560" r="230" fill="#caffbf" opacity=".28" filter="url(#blur)"/>
<g opacity="0.92"><rect x="120" y="220" rx="16" ry="16" width="70" height="240" fill="#f6fbff" opacity=".92"/><rect x="208" y="220" rx="16" ry="16" width="70" height="240" fill="#f6fbff" opacity=".92"/><rect x="296" y="220" rx="16" ry="16" width="70" height="240" fill="#f6fbff" opacity=".92"/><rect x="384" y="220" rx="16" ry="16" width="70" height="240" fill="#f6fbff" opacity=".92"/><rect x="472" y="220" rx="16" ry="16" width="70" height="240" fill="#f6fbff" opacity=".92"/><rect x="560" y="220" rx="16" ry="16" width="70" height="240" fill="#f6fbff" opacity=".92"/><rect x="648" y="220" rx="16" ry="16" width="70" height="240" fill="#f6fbff" opacity=".92"/><rect x="736" y="220" rx="16" ry="16" width="70" height="240" fill="#f6fbff" opacity=".92"/><rect x="824" y="220" rx="16" ry="16" width="70" height="240" fill="#f6fbff" opacity=".92"/><rect x="912" y="220" rx="16" ry="16" width="70" height="240" fill="#f6fbff" opacity=".92"/></g>
<text x="72" y="620" fill="white" font-size="68" font-family="Arial, Helvetica, sans-serif" font-weight="700">🦊 Animal Call Keyboard</text>
<text x="74" y="680" fill="#eef6ff" opacity=".86" font-size="30" font-family="Arial, Helvetica, sans-serif">3D music experiment</text>
</svg>